<?xml version="1.0" encoding="UTF-8" standalone="no"?>
<svg
   xmlns:dc="http://purl.org/dc/elements/1.1/"
   xmlns:cc="http://creativecommons.org/ns#"
   xmlns:rdf="http://www.w3.org/1999/02/22-rdf-syntax-ns#"
   xmlns:svg="http://www.w3.org/2000/svg"
   xmlns="http://www.w3.org/2000/svg"
   version="1.0"
   id="svg8251"
   height="600"
   width="600">
  <defs
     id="defs8253" />
  <metadata
     id="metadata8256">
    <rdf:RDF>
      <cc:Work
         rdf:about="">
        <dc:format>image/svg+xml</dc:format>
        <dc:type
           rdf:resource="http://purl.org/dc/dcmitype/StillImage" />
        <dc:title></dc:title>
      </cc:Work>
    </rdf:RDF>
  </metadata>
  <g
     transform="translate(-81.857155,-65.647881)"
     id="layer1">
    <path
       transform="matrix(3.0897095,0,0,3.0897095,-637.00729,-68.439162)"
       d="m 331.33003,82.615738 a 2.0203052,2.0203052 0 0 1 -2.02031,2.020305 2.0203052,2.0203052 0 0 1 -2.0203,-2.020305 2.0203052,2.0203052 0 0 1 2.0203,-2.020305 2.0203052,2.0203052 0 0 1 2.02031,2.020305 z"
       id="path3133"
       style="fill:#7f7f7f;fill-opacity:1;stroke:none;stroke-width:2;stroke-miterlimit:4;stroke-dasharray:none;stroke-dashoffset:0;stroke-opacity:1" />
    <path
       style="fill:#7f7f7f;fill-opacity:1;stroke:none;stroke-width:2;stroke-miterlimit:4;stroke-dasharray:none;stroke-dashoffset:0;stroke-opacity:1"
       id="path4104"
       d="m 331.33003,82.615738 a 2.0203052,2.0203052 0 0 1 -2.02031,2.020305 2.0203052,2.0203052 0 0 1 -2.0203,-2.020305 2.0203052,2.0203052 0 0 1 2.0203,-2.020305 2.0203052,2.0203052 0 0 1 2.02031,2.020305 z"
       transform="matrix(3.0897095,0,0,3.0897095,-724.18125,97.080993)" />
    <path
       transform="matrix(3.0897095,0,0,3.0897095,-673.42171,-7.748431)"
       d="m 331.33003,82.615738 a 2.0203052,2.0203052 0 0 1 -2.02031,2.020305 2.0203052,2.0203052 0 0 1 -2.0203,-2.020305 2.0203052,2.0203052 0 0 1 2.0203,-2.020305 2.0203052,2.0203052 0 0 1 2.02031,2.020305 z"
       id="path4106"
       style="fill:#7f7f7f;fill-opacity:1;stroke:none;stroke-width:2;stroke-miterlimit:4;stroke-dasharray:none;stroke-dashoffset:0;stroke-opacity:1" />
    <path
       style="fill:#7f7f7f;fill-opacity:1;stroke:none;stroke-width:2;stroke-miterlimit:4;stroke-dasharray:none;stroke-dashoffset:0;stroke-opacity:1"
       id="path4108"
       d="m 331.33003,82.615738 a 2.0203052,2.0203052 0 0 1 -2.02031,2.020305 2.0203052,2.0203052 0 0 1 -2.0203,-2.020305 2.0203052,2.0203052 0 0 1 2.0203,-2.020305 2.0203052,2.0203052 0 0 1 2.02031,2.020305 z"
       transform="matrix(3.0897095,0,0,3.0897095,-611.62752,-13.265756)" />
    <path
       transform="matrix(3.0897095,0,0,3.0897095,-741.83671,223.97979)"
       d="m 331.33003,82.615738 a 2.0203052,2.0203052 0 0 1 -2.02031,2.020305 2.0203052,2.0203052 0 0 1 -2.0203,-2.020305 2.0203052,2.0203052 0 0 1 2.0203,-2.020305 2.0203052,2.0203052 0 0 1 2.02031,2.020305 z"
       id="path4110"
       style="fill:#7f7f7f;fill-opacity:1;stroke:none;stroke-width:2;stroke-miterlimit:4;stroke-dasharray:none;stroke-dashoffset:0;stroke-opacity:1" />
    <path
       style="fill:#7f7f7f;fill-opacity:1;stroke:none;stroke-width:2;stroke-miterlimit:4;stroke-dasharray:none;stroke-dashoffset:0;stroke-opacity:1"
       id="path4112"
       d="m 331.33003,82.615738 a 2.0203052,2.0203052 0 0 1 -2.02031,2.020305 2.0203052,2.0203052 0 0 1 -2.0203,-2.020305 2.0203052,2.0203052 0 0 1 2.0203,-2.020305 2.0203052,2.0203052 0 0 1 2.02031,2.020305 z"
       transform="matrix(3.0897095,0,0,3.0897095,-699.90494,177.63415)" />
    <path
       transform="matrix(3.0897095,0,0,3.0897095,-480.31488,-40.852444)"
       d="m 331.33003,82.615738 a 2.0203052,2.0203052 0 0 1 -2.02031,2.020305 2.0203052,2.0203052 0 0 1 -2.0203,-2.020305 2.0203052,2.0203052 0 0 1 2.0203,-2.020305 2.0203052,2.0203052 0 0 1 2.02031,2.020305 z"
       id="path4114"
       style="fill:#7f7f7f;fill-opacity:1;stroke:none;stroke-width:2;stroke-miterlimit:4;stroke-dasharray:none;stroke-dashoffset:0;stroke-opacity:1" />
    <path
       style="fill:#7f7f7f;fill-opacity:1;stroke:none;stroke-width:2;stroke-miterlimit:4;stroke-dasharray:none;stroke-dashoffset:0;stroke-opacity:1"
       id="path4116"
       d="m 331.33003,82.615738 a 2.0203052,2.0203052 0 0 1 -2.02031,2.020305 2.0203052,2.0203052 0 0 1 -2.0203,-2.020305 2.0203052,2.0203052 0 0 1 2.0203,-2.020305 2.0203052,2.0203052 0 0 1 2.02031,2.020305 z"
       transform="matrix(3.0897095,0,0,3.0897095,-438.3831,-69.542621)" />
    <path
       transform="matrix(3.0897095,0,0,3.0897095,-641.42115,113.63303)"
       d="m 331.33003,82.615738 a 2.0203052,2.0203052 0 0 1 -2.02031,2.020305 2.0203052,2.0203052 0 0 1 -2.0203,-2.020305 2.0203052,2.0203052 0 0 1 2.0203,-2.020305 2.0203052,2.0203052 0 0 1 2.02031,2.020305 z"
       id="path4118"
       style="fill:#7f7f7f;fill-opacity:1;stroke:none;stroke-width:2;stroke-miterlimit:4;stroke-dasharray:none;stroke-dashoffset:0;stroke-opacity:1" />
    <path
       style="fill:#7f7f7f;fill-opacity:1;stroke:none;stroke-width:2;stroke-miterlimit:4;stroke-dasharray:none;stroke-dashoffset:0;stroke-opacity:1"
       id="path4120"
       d="m 331.33003,82.615738 a 2.0203052,2.0203052 0 0 1 -2.02031,2.020305 2.0203052,2.0203052 0 0 1 -2.0203,-2.020305 2.0203052,2.0203052 0 0 1 2.0203,-2.020305 2.0203052,2.0203052 0 0 1 2.02031,2.020305 z"
       transform="matrix(3.0897095,0,0,3.0897095,-520.03973,-18.783112)" />
    <path
       transform="matrix(3.0897095,0,0,3.0897095,-607.21365,78.322038)"
       d="m 331.33003,82.615738 a 2.0203052,2.0203052 0 0 1 -2.02031,2.020305 2.0203052,2.0203052 0 0 1 -2.0203,-2.020305 2.0203052,2.0203052 0 0 1 2.0203,-2.020305 2.0203052,2.0203052 0 0 1 2.02031,2.020305 z"
       id="path4122"
       style="fill:#7f7f7f;fill-opacity:1;stroke:none;stroke-width:2;stroke-miterlimit:4;stroke-dasharray:none;stroke-dashoffset:0;stroke-opacity:1" />
    <path
       style="fill:#7f7f7f;fill-opacity:1;stroke:none;stroke-width:2;stroke-miterlimit:4;stroke-dasharray:none;stroke-dashoffset:0;stroke-opacity:1"
       id="path4124"
       d="m 331.33003,82.615738 a 2.0203052,2.0203052 0 0 1 -2.02031,2.020305 2.0203052,2.0203052 0 0 1 -2.0203,-2.020305 2.0203052,2.0203052 0 0 1 2.0203,-2.020305 2.0203052,2.0203052 0 0 1 2.02031,2.020305 z"
       transform="matrix(3.0897095,0,0,3.0897095,-897.42564,365.22367)" />
    <path
       transform="matrix(3.0897095,0,0,3.0897095,-862.11468,338.74044)"
       d="m 331.33003,82.615738 a 2.0203052,2.0203052 0 0 1 -2.02031,2.020305 2.0203052,2.0203052 0 0 1 -2.0203,-2.020305 2.0203052,2.0203052 0 0 1 2.0203,-2.020305 2.0203052,2.0203052 0 0 1 2.02031,2.020305 z"
       id="path4126"
       style="fill:#7f7f7f;fill-opacity:1;stroke:none;stroke-width:2;stroke-miterlimit:4;stroke-dasharray:none;stroke-dashoffset:0;stroke-opacity:1" />
    <path
       style="fill:#7f7f7f;fill-opacity:1;stroke:none;stroke-width:2;stroke-miterlimit:4;stroke-dasharray:none;stroke-dashoffset:0;stroke-opacity:1"
       id="path4128"
       d="m 331.33003,82.615738 a 2.0203052,2.0203052 0 0 1 -2.02031,2.020305 2.0203052,2.0203052 0 0 1 -2.0203,-2.020305 2.0203052,2.0203052 0 0 1 2.0203,-2.020305 2.0203052,2.0203052 0 0 1 2.02031,2.020305 z"
       transform="matrix(3.0897095,0,0,3.0897095,-653.55929,127.97809)" />
    <path
       transform="matrix(3.0897095,0,0,3.0897095,-787.0789,261.4977)"
       d="m 331.33003,82.615738 a 2.0203052,2.0203052 0 0 1 -2.02031,2.020305 2.0203052,2.0203052 0 0 1 -2.0203,-2.020305 2.0203052,2.0203052 0 0 1 2.0203,-2.020305 2.0203052,2.0203052 0 0 1 2.02031,2.020305 z"
       id="path4130"
       style="fill:#7f7f7f;fill-opacity:1;stroke:none;stroke-width:2;stroke-miterlimit:4;stroke-dasharray:none;stroke-dashoffset:0;stroke-opacity:1" />
    <path
       style="fill:#7f7f7f;fill-opacity:1;stroke:none;stroke-width:2;stroke-miterlimit:4;stroke-dasharray:none;stroke-dashoffset:0;stroke-opacity:1"
       id="path4132"
       d="m 331.33003,82.615738 a 2.0203052,2.0203052 0 0 1 -2.02031,2.020305 2.0203052,2.0203052 0 0 1 -2.0203,-2.020305 2.0203052,2.0203052 0 0 1 2.0203,-2.020305 2.0203052,2.0203052 0 0 1 2.02031,2.020305 z"
       transform="matrix(3.0897095,0,0,3.0897095,-527.76401,7.700116)" />
    <path
       transform="matrix(3.0897095,0,0,3.0897095,-575.2131,67.287388)"
       d="m 331.33003,82.615738 a 2.0203052,2.0203052 0 0 1 -2.02031,2.020305 2.0203052,2.0203052 0 0 1 -2.0203,-2.020305 2.0203052,2.0203052 0 0 1 2.0203,-2.020305 2.0203052,2.0203052 0 0 1 2.02031,2.020305 z"
       id="path4134"
       style="fill:#7f7f7f;fill-opacity:1;stroke:none;stroke-width:2;stroke-miterlimit:4;stroke-dasharray:none;stroke-dashoffset:0;stroke-opacity:1" />
    <path
       style="fill:#7f7f7f;fill-opacity:1;stroke:none;stroke-width:2;stroke-miterlimit:4;stroke-dasharray:none;stroke-dashoffset:0;stroke-opacity:1"
       id="path4136"
       d="m 331.33003,82.615738 a 2.0203052,2.0203052 0 0 1 -2.02031,2.020305 2.0203052,2.0203052 0 0 1 -2.0203,-2.020305 2.0203052,2.0203052 0 0 1 2.0203,-2.020305 2.0203052,2.0203052 0 0 1 2.02031,2.020305 z"
       transform="matrix(3.0897095,0,0,3.0897095,-384.31318,-124.716)" />
    <path
       transform="matrix(3.0897095,0,0,3.0897095,-422.93455,-91.61198)"
       d="m 331.33003,82.615738 a 2.0203052,2.0203052 0 0 1 -2.02031,2.020305 2.0203052,2.0203052 0 0 1 -2.0203,-2.020305 2.0203052,2.0203052 0 0 1 2.0203,-2.020305 2.0203052,2.0203052 0 0 1 2.02031,2.020305 z"
       id="path4138"
       style="fill:#7f7f7f;fill-opacity:1;stroke:none;stroke-width:2;stroke-miterlimit:4;stroke-dasharray:none;stroke-dashoffset:0;stroke-opacity:1" />
    <path
       style="fill:#7f7f7f;fill-opacity:1;stroke:none;stroke-width:2;stroke-miterlimit:4;stroke-dasharray:none;stroke-dashoffset:0;stroke-opacity:1"
       id="path4140"
       d="m 331.33003,82.615738 a 2.0203052,2.0203052 0 0 1 -2.02031,2.020305 2.0203052,2.0203052 0 0 1 -2.0203,-2.020305 2.0203052,2.0203052 0 0 1 2.0203,-2.020305 2.0203052,2.0203052 0 0 1 2.02031,2.020305 z"
       transform="matrix(3.0897095,0,0,3.0897095,-844.45922,312.25721)" />
    <path
       transform="matrix(3.0897095,0,0,3.0897095,-806.94131,302.32602)"
       d="m 331.33003,82.615738 a 2.0203052,2.0203052 0 0 1 -2.02031,2.020305 2.0203052,2.0203052 0 0 1 -2.0203,-2.020305 2.0203052,2.0203052 0 0 1 2.0203,-2.020305 2.0203052,2.0203052 0 0 1 2.02031,2.020305 z"
       id="path4142"
       style="fill:#7f7f7f;fill-opacity:1;stroke:none;stroke-width:2;stroke-miterlimit:4;stroke-dasharray:none;stroke-dashoffset:0;stroke-opacity:1" />
    <path
       style="fill:#7f7f7f;fill-opacity:1;stroke:none;stroke-width:2;stroke-miterlimit:4;stroke-dasharray:none;stroke-dashoffset:0;stroke-opacity:1"
       id="path4144"
       d="m 331.33003,82.615738 a 2.0203052,2.0203052 0 0 1 -2.02031,2.020305 2.0203052,2.0203052 0 0 1 -2.0203,-2.020305 2.0203052,2.0203052 0 0 1 2.0203,-2.020305 2.0203052,2.0203052 0 0 1 2.02031,2.020305 z"
       transform="matrix(3.0897095,0,0,3.0897095,-766.11302,230.60061)" />
    <path
       transform="matrix(3.0897095,0,0,3.0897095,-726.38816,196.3931)"
       d="m 331.33003,82.615738 a 2.0203052,2.0203052 0 0 1 -2.02031,2.020305 2.0203052,2.0203052 0 0 1 -2.0203,-2.020305 2.0203052,2.0203052 0 0 1 2.0203,-2.020305 2.0203052,2.0203052 0 0 1 2.02031,2.020305 z"
       id="path4146"
       style="fill:#ffff00;fill-opacity:1;stroke:none;stroke-width:2;stroke-miterlimit:4;stroke-dasharray:none;stroke-dashoffset:0;stroke-opacity:1" />
    <path
       style="fill:#7f7f7f;fill-opacity:1;stroke:none;stroke-width:2;stroke-miterlimit:4;stroke-dasharray:none;stroke-dashoffset:0;stroke-opacity:1"
       id="path4148"
       d="m 331.33003,82.615738 a 2.0203052,2.0203052 0 0 1 -2.02031,2.020305 2.0203052,2.0203052 0 0 1 -2.0203,-2.020305 2.0203052,2.0203052 0 0 1 2.0203,-2.020305 2.0203052,2.0203052 0 0 1 2.02031,2.020305 z"
       transform="matrix(3.0897095,0,0,3.0897095,-680.04252,162.1856)" />
    <path
       transform="matrix(3.0897095,0,0,3.0897095,-616.04142,112.52954)"
       d="m 331.33003,82.615738 a 2.0203052,2.0203052 0 0 1 -2.02031,2.020305 2.0203052,2.0203052 0 0 1 -2.0203,-2.020305 2.0203052,2.0203052 0 0 1 2.0203,-2.020305 2.0203052,2.0203052 0 0 1 2.02031,2.020305 z"
       id="path4150"
       style="fill:#ffff00;fill-opacity:1;stroke:none;stroke-width:2;stroke-miterlimit:4;stroke-dasharray:none;stroke-dashoffset:0;stroke-opacity:1" />
    <path
       style="fill:#7f7f7f;fill-opacity:1;stroke:none;stroke-width:2;stroke-miterlimit:4;stroke-dasharray:none;stroke-dashoffset:0;stroke-opacity:1"
       id="path4152"
       d="m 331.33003,82.615738 a 2.0203052,2.0203052 0 0 1 -2.02031,2.020305 2.0203052,2.0203052 0 0 1 -2.0203,-2.020305 2.0203052,2.0203052 0 0 1 2.0203,-2.020305 2.0203052,2.0203052 0 0 1 2.02031,2.020305 z"
       transform="matrix(3.0897095,0,0,3.0897095,-494.65996,-28.714304)" />
    <path
       transform="matrix(3.0897095,0,0,3.0897095,-554.2472,38.597211)"
       d="m 331.33003,82.615738 a 2.0203052,2.0203052 0 0 1 -2.02031,2.020305 2.0203052,2.0203052 0 0 1 -2.0203,-2.020305 2.0203052,2.0203052 0 0 1 2.0203,-2.020305 2.0203052,2.0203052 0 0 1 2.02031,2.020305 z"
       id="path4154"
       style="fill:#7f7f7f;fill-opacity:1;stroke:none;stroke-width:2;stroke-miterlimit:4;stroke-dasharray:none;stroke-dashoffset:0;stroke-opacity:1" />
    <path
       style="fill:#7f7f7f;fill-opacity:1;stroke:none;stroke-width:2;stroke-miterlimit:4;stroke-dasharray:none;stroke-dashoffset:0;stroke-opacity:1"
       id="path4156"
       d="m 331.33003,82.615738 a 2.0203052,2.0203052 0 0 1 -2.02031,2.020305 2.0203052,2.0203052 0 0 1 -2.0203,-2.020305 2.0203052,2.0203052 0 0 1 2.0203,-2.020305 2.0203052,2.0203052 0 0 1 2.02031,2.020305 z"
       transform="matrix(3.0897095,0,0,3.0897095,-446.10737,-58.50794)" />
    <path
       style="fill:#7f7f7f;fill-opacity:1;stroke:none;stroke-width:2;stroke-miterlimit:4;stroke-dasharray:none;stroke-dashoffset:0;stroke-opacity:1"
       id="path4160"
       d="m 331.33003,82.615738 a 2.0203052,2.0203052 0 0 1 -2.02031,2.020305 2.0203052,2.0203052 0 0 1 -2.0203,-2.020305 2.0203052,2.0203052 0 0 1 2.0203,-2.020305 2.0203052,2.0203052 0 0 1 2.02031,2.020305 z"
       transform="matrix(3.0897095,0,0,3.0897095,-694.38761,50.735351)" />
    <path
       transform="matrix(3.0897095,0,0,3.0897095,-859.90777,188.66883)"
       d="m 331.33003,82.615738 a 2.0203052,2.0203052 0 0 1 -2.02031,2.020305 2.0203052,2.0203052 0 0 1 -2.0203,-2.020305 2.0203052,2.0203052 0 0 1 2.0203,-2.020305 2.0203052,2.0203052 0 0 1 2.02031,2.020305 z"
       id="path4162"
       style="fill:#7f7f7f;fill-opacity:1;stroke:none;stroke-width:2;stroke-miterlimit:4;stroke-dasharray:none;stroke-dashoffset:0;stroke-opacity:1" />
    <path
       style="fill:#7f7f7f;fill-opacity:1;stroke:none;stroke-width:2;stroke-miterlimit:4;stroke-dasharray:none;stroke-dashoffset:0;stroke-opacity:1"
       id="path4164"
       d="m 331.33003,82.615738 a 2.0203052,2.0203052 0 0 1 -2.02031,2.020305 2.0203052,2.0203052 0 0 1 -2.0203,-2.020305 2.0203052,2.0203052 0 0 1 2.0203,-2.020305 2.0203052,2.0203052 0 0 1 2.02031,2.020305 z"
       transform="matrix(3.0897095,0,0,3.0897095,-778.25116,141.21973)" />
    <path
       transform="matrix(3.0897095,0,0,3.0897095,-815.76904,49.631892)"
       d="m 331.33003,82.615738 a 2.0203052,2.0203052 0 0 1 -2.02031,2.020305 2.0203052,2.0203052 0 0 1 -2.0203,-2.020305 2.0203052,2.0203052 0 0 1 2.0203,-2.020305 2.0203052,2.0203052 0 0 1 2.02031,2.020305 z"
       id="path4166"
       style="fill:#7f7f7f;fill-opacity:1;stroke:none;stroke-width:2;stroke-miterlimit:4;stroke-dasharray:none;stroke-dashoffset:0;stroke-opacity:1" />
    <path
       style="fill:#7f7f7f;fill-opacity:1;stroke:none;stroke-width:2;stroke-miterlimit:4;stroke-dasharray:none;stroke-dashoffset:0;stroke-opacity:1"
       id="path4168"
       d="m 331.33003,82.615738 a 2.0203052,2.0203052 0 0 1 -2.02031,2.020305 2.0203052,2.0203052 0 0 1 -2.0203,-2.020305 2.0203052,2.0203052 0 0 1 2.0203,-2.020305 2.0203052,2.0203052 0 0 1 2.02031,2.020305 z"
       transform="matrix(3.0897095,0,0,3.0897095,-894.11527,110.32262)" />
    <path
       transform="matrix(3.0897095,0,0,3.0897095,-751.76793,-1.127616)"
       d="m 331.33003,82.615738 a 2.0203052,2.0203052 0 0 1 -2.02031,2.020305 2.0203052,2.0203052 0 0 1 -2.0203,-2.020305 2.0203052,2.0203052 0 0 1 2.0203,-2.020305 2.0203052,2.0203052 0 0 1 2.02031,2.020305 z"
       id="path4170"
       style="fill:#7f7f7f;fill-opacity:1;stroke:none;stroke-width:2;stroke-miterlimit:4;stroke-dasharray:none;stroke-dashoffset:0;stroke-opacity:1" />
    <path
       transform="matrix(3.0897095,0,0,3.0897095,-426.24499,130.18504)"
       d="m 331.33003,82.615738 a 2.0203052,2.0203052 0 0 1 -2.02031,2.020305 2.0203052,2.0203052 0 0 1 -2.0203,-2.020305 2.0203052,2.0203052 0 0 1 2.0203,-2.020305 2.0203052,2.0203052 0 0 1 2.02031,2.020305 z"
       id="path4172"
       style="fill:#7f7f7f;fill-opacity:1;stroke:none;stroke-width:2;stroke-miterlimit:4;stroke-dasharray:none;stroke-dashoffset:0;stroke-opacity:1" />
    <path
       transform="matrix(3.0897095,0,0,3.0897095,-396.45136,83.839394)"
       d="m 331.33003,82.615738 a 2.0203052,2.0203052 0 0 1 -2.02031,2.020305 2.0203052,2.0203052 0 0 1 -2.0203,-2.020305 2.0203052,2.0203052 0 0 1 2.0203,-2.020305 2.0203052,2.0203052 0 0 1 2.02031,2.020305 z"
       id="path4174"
       style="fill:#7f7f7f;fill-opacity:1;stroke:none;stroke-width:2;stroke-miterlimit:4;stroke-dasharray:none;stroke-dashoffset:0;stroke-opacity:1" />
    <path
       transform="matrix(3.0897095,0,0,3.0897095,-471.48717,152.25441)"
       d="m 331.33003,82.615738 a 2.0203052,2.0203052 0 0 1 -2.02031,2.020305 2.0203052,2.0203052 0 0 1 -2.0203,-2.020305 2.0203052,2.0203052 0 0 1 2.0203,-2.020305 2.0203052,2.0203052 0 0 1 2.02031,2.020305 z"
       id="path4176"
       style="fill:#7f7f7f;fill-opacity:1;stroke:none;stroke-width:2;stroke-miterlimit:4;stroke-dasharray:none;stroke-dashoffset:0;stroke-opacity:1" />
    <path
       style="fill:#7f7f7f;fill-opacity:1;stroke:none;stroke-width:2;stroke-miterlimit:4;stroke-dasharray:none;stroke-dashoffset:0;stroke-opacity:1"
       id="path4178"
       d="m 331.33003,82.615738 a 2.0203052,2.0203052 0 0 1 -2.02031,2.020305 2.0203052,2.0203052 0 0 1 -2.0203,-2.020305 2.0203052,2.0203052 0 0 1 2.0203,-2.020305 2.0203052,2.0203052 0 0 1 2.02031,2.020305 z"
       transform="matrix(3.0897095,0,0,3.0897095,-517.83279,82.735935)" />
    <path
       style="fill:#7f7f7f;fill-opacity:1;stroke:none;stroke-width:2;stroke-miterlimit:4;stroke-dasharray:none;stroke-dashoffset:0;stroke-opacity:1"
       id="path4180"
       d="m 331.33003,82.615738 a 2.0203052,2.0203052 0 0 1 -2.02031,2.020305 2.0203052,2.0203052 0 0 1 -2.0203,-2.020305 2.0203052,2.0203052 0 0 1 2.0203,-2.020305 2.0203052,2.0203052 0 0 1 2.02031,2.020305 z"
       transform="matrix(3.0897095,0,0,3.0897095,-453.83168,31.976396)" />
    <path
       style="fill:#7f7f7f;fill-opacity:1;stroke:none;stroke-width:2;stroke-miterlimit:4;stroke-dasharray:none;stroke-dashoffset:0;stroke-opacity:1"
       id="path4182"
       d="m 331.33003,82.615738 a 2.0203052,2.0203052 0 0 1 -2.02031,2.020305 2.0203052,2.0203052 0 0 1 -2.0203,-2.020305 2.0203052,2.0203052 0 0 1 2.0203,-2.020305 2.0203052,2.0203052 0 0 1 2.02031,2.020305 z"
       transform="matrix(3.0897095,0,0,3.0897095,-521.14319,345.36125)" />
    <path
       style="fill:#7f7f7f;fill-opacity:1;stroke:none;stroke-width:2;stroke-miterlimit:4;stroke-dasharray:none;stroke-dashoffset:0;stroke-opacity:1"
       id="path4184"
       d="m 331.33003,82.615738 a 2.0203052,2.0203052 0 0 1 -2.02031,2.020305 2.0203052,2.0203052 0 0 1 -2.0203,-2.020305 2.0203052,2.0203052 0 0 1 2.0203,-2.020305 2.0203052,2.0203052 0 0 1 2.02031,2.020305 z"
       transform="matrix(3.0897095,0,0,3.0897095,-491.34956,299.01561)" />
    <path
       style="fill:#7f7f7f;fill-opacity:1;stroke:none;stroke-width:2;stroke-miterlimit:4;stroke-dasharray:none;stroke-dashoffset:0;stroke-opacity:1"
       id="path4186"
       d="m 331.33003,82.615738 a 2.0203052,2.0203052 0 0 1 -2.02031,2.020305 2.0203052,2.0203052 0 0 1 -2.0203,-2.020305 2.0203052,2.0203052 0 0 1 2.0203,-2.020305 2.0203052,2.0203052 0 0 1 2.02031,2.020305 z"
       transform="matrix(3.0897095,0,0,3.0897095,-566.3854,335.43003)" />
    <path
       transform="matrix(3.0897095,0,0,3.0897095,-589.55819,243.84224)"
       d="m 331.33003,82.615738 a 2.0203052,2.0203052 0 0 1 -2.02031,2.020305 2.0203052,2.0203052 0 0 1 -2.0203,-2.020305 2.0203052,2.0203052 0 0 1 2.0203,-2.020305 2.0203052,2.0203052 0 0 1 2.02031,2.020305 z"
       id="path4188"
       style="fill:#7f7f7f;fill-opacity:1;stroke:none;stroke-width:2;stroke-miterlimit:4;stroke-dasharray:none;stroke-dashoffset:0;stroke-opacity:1" />
    <path
       transform="matrix(3.0897095,0,0,3.0897095,-523.35014,194.18619)"
       d="m 331.33003,82.615738 a 2.0203052,2.0203052 0 0 1 -2.02031,2.020305 2.0203052,2.0203052 0 0 1 -2.0203,-2.020305 2.0203052,2.0203052 0 0 1 2.0203,-2.020305 2.0203052,2.0203052 0 0 1 2.02031,2.020305 z"
       id="path4190"
       style="fill:#7f7f7f;fill-opacity:1;stroke:none;stroke-width:2;stroke-miterlimit:4;stroke-dasharray:none;stroke-dashoffset:0;stroke-opacity:1" />
    <path
       transform="matrix(3.0897095,0,0,3.0897095,-746.25061,-48.576717)"
       d="m 331.33003,82.615738 a 2.0203052,2.0203052 0 0 1 -2.02031,2.020305 2.0203052,2.0203052 0 0 1 -2.0203,-2.020305 2.0203052,2.0203052 0 0 1 2.0203,-2.020305 2.0203052,2.0203052 0 0 1 2.02031,2.020305 z"
       id="path4192"
       style="fill:#7f7f7f;fill-opacity:1;stroke:none;stroke-width:2;stroke-miterlimit:4;stroke-dasharray:none;stroke-dashoffset:0;stroke-opacity:1" />
    <path
       style="fill:#7f7f7f;fill-opacity:1;stroke:none;stroke-width:2;stroke-miterlimit:4;stroke-dasharray:none;stroke-dashoffset:0;stroke-opacity:1"
       id="path4194"
       d="m 331.33003,82.615738 a 2.0203052,2.0203052 0 0 1 -2.02031,2.020305 2.0203052,2.0203052 0 0 1 -2.0203,-2.020305 2.0203052,2.0203052 0 0 1 2.0203,-2.020305 2.0203052,2.0203052 0 0 1 2.02031,2.020305 z"
       transform="matrix(3.0897095,0,0,3.0897095,-695.49107,-153.40617)" />
    <path
       transform="matrix(3.0897095,0,0,3.0897095,-716.45697,-94.92236)"
       d="m 331.33003,82.615738 a 2.0203052,2.0203052 0 0 1 -2.02031,2.020305 2.0203052,2.0203052 0 0 1 -2.0203,-2.020305 2.0203052,2.0203052 0 0 1 2.0203,-2.020305 2.0203052,2.0203052 0 0 1 2.02031,2.020305 z"
       id="path4196"
       style="fill:#7f7f7f;fill-opacity:1;stroke:none;stroke-width:2;stroke-miterlimit:4;stroke-dasharray:none;stroke-dashoffset:0;stroke-opacity:1" />
    <path
       style="fill:#7f7f7f;fill-opacity:1;stroke:none;stroke-width:2;stroke-miterlimit:4;stroke-dasharray:none;stroke-dashoffset:0;stroke-opacity:1"
       id="path4198"
       d="m 331.33003,82.615738 a 2.0203052,2.0203052 0 0 1 -2.02031,2.020305 2.0203052,2.0203052 0 0 1 -2.0203,-2.020305 2.0203052,2.0203052 0 0 1 2.0203,-2.020305 2.0203052,2.0203052 0 0 1 2.02031,2.020305 z"
       transform="matrix(3.0897095,0,0,3.0897095,-837.8384,-96.02585)" />
    <path
       style="fill:#7f7f7f;fill-opacity:1;stroke:none;stroke-width:2;stroke-miterlimit:4;stroke-dasharray:none;stroke-dashoffset:0;stroke-opacity:1"
       id="path4200"
       d="m 331.33003,82.615738 a 2.0203052,2.0203052 0 0 1 -2.02031,2.020305 2.0203052,2.0203052 0 0 1 -2.0203,-2.020305 2.0203052,2.0203052 0 0 1 2.0203,-2.020305 2.0203052,2.0203052 0 0 1 2.02031,2.020305 z"
       transform="matrix(3.0897095,0,0,3.0897095,-773.8373,-146.78536)" />
    <path
       id="path864"
       d="M 121.19169,598.36769 639.3218,159.4819"
       style="fill:#0000ff;stroke:#06129c;stroke-width:4.98706388px;stroke-linecap:butt;stroke-linejoin:miter;stroke-opacity:1" />
  </g>
</svg>
