<?xml version="1.0" encoding="UTF-8" standalone="no"?>
<!-- Created with Inkscape (http://www.inkscape.org/) -->

<svg
   xmlns:dc="http://purl.org/dc/elements/1.1/"
   xmlns:cc="http://creativecommons.org/ns#"
   xmlns:rdf="http://www.w3.org/1999/02/22-rdf-syntax-ns#"
   xmlns:svg="http://www.w3.org/2000/svg"
   xmlns="http://www.w3.org/2000/svg"
   xmlns:sodipodi="http://sodipodi.sourceforge.net/DTD/sodipodi-0.dtd"
   xmlns:inkscape="http://www.inkscape.org/namespaces/inkscape"
   width="1920"
   height="1080"
   viewBox="0 0 507.99999 285.75001"
   version="1.1"
   id="svg8"
   inkscape:version="0.92.3 (2405546, 2018-03-11)"
   sodipodi:docname="2cam.svg"
   inkscape:export-filename="/home/behnam/bitmap.png"
   inkscape:export-xdpi="96"
   inkscape:export-ydpi="96">
  <sodipodi:namedview
     id="base"
     pagecolor="#000000"
     bordercolor="#666666"
     borderopacity="1.0"
     inkscape:pageopacity="1"
     inkscape:pageshadow="2"
     inkscape:zoom="0.56579698"
     inkscape:cx="1133.6482"
     inkscape:cy="691.50801"
     inkscape:document-units="mm"
     inkscape:current-layer="layer1"
     showgrid="false"
     units="px"
     inkscape:window-width="1842"
     inkscape:window-height="1052"
     inkscape:window-x="1998"
     inkscape:window-y="0"
     inkscape:window-maximized="1"
     inkscape:pagecheckerboard="true" />
  <defs
     id="defs2">
    <inkscape:perspective
       id="perspective817"
       inkscape:persp3d-origin="254 : 95.250003 : 1"
       inkscape:vp_z="507.99999 : 142.875 : 1"
       inkscape:vp_y="0 : 1000 : 0"
       inkscape:vp_x="0 : 142.875 : 1"
       sodipodi:type="inkscape:persp3d" />
  </defs>
  <metadata
     id="metadata5">
    <rdf:RDF>
      <cc:Work
         rdf:about="">
        <dc:format>image/svg+xml</dc:format>
        <dc:type
           rdf:resource="http://purl.org/dc/dcmitype/StillImage" />
        <dc:title></dc:title>
      </cc:Work>
    </rdf:RDF>
  </metadata>
  <g
     transform="translate(0,-11.249983)"
     id="layer1"
     inkscape:groupmode="layer"
     inkscape:label="Layer 1">
    <path
       style="fill:none;stroke:#ffffff;stroke-width:1.365;stroke-linecap:butt;stroke-linejoin:miter;stroke-opacity:1;stroke-miterlimit:4;stroke-dasharray:none"
       d="m 68.035713,206.2857 -57.45238,77.8631 H 489.85714 L 431.63451,206.44223 68.035713,206.2857"
       id="path903"
       inkscape:connector-curvature="0"
       sodipodi:nodetypes="ccccc" />
    <path
       style="fill:none;stroke:#ffffff;stroke-width:1.36500001;stroke-linecap:butt;stroke-linejoin:miter;stroke-miterlimit:4;stroke-dasharray:none;stroke-opacity:1"
       d="M 80.234958,259.01688 30.257046,121.78939 C 68.793991,162.07801 135.92099,199.85462 171.7469,237.30898"
       id="path924"
       inkscape:connector-curvature="0"
       sodipodi:nodetypes="ccc" />
    <path
       style="fill:none;stroke:#ffffff;stroke-width:1.365;stroke-linecap:butt;stroke-linejoin:miter;stroke-opacity:1;stroke-miterlimit:4;stroke-dasharray:none"
       d="M 170.87286,270.02896 76.768495,170.83499 30.281583,121.83385 278.45244,239.53395"
       id="path928"
       inkscape:connector-curvature="0"
       sodipodi:nodetypes="cccc" />
    <path
       style="fill:none;stroke:#ffffff;stroke-width:1.365;stroke-linecap:butt;stroke-linejoin:miter;stroke-opacity:1;stroke-miterlimit:4;stroke-dasharray:none"
       d="M 80.259496,259.06133 431.6831,82.771043"
       id="path932"
       inkscape:connector-curvature="0" />
    <path
       style="fill:none;stroke:#ffffff;stroke-width:1.365;stroke-linecap:butt;stroke-linejoin:miter;stroke-opacity:1;stroke-miterlimit:4;stroke-dasharray:none"
       d="M 170.8974,270.07342 431.6831,82.771043"
       id="path934"
       inkscape:connector-curvature="0" />
    <path
       style="fill:none;stroke:#ffffff;stroke-width:1.36500001;stroke-linecap:butt;stroke-linejoin:miter;stroke-miterlimit:4;stroke-dasharray:none;stroke-opacity:1"
       d="M 278.45244,239.53395 431.6831,82.771043 171.7469,237.30898"
       id="path936"
       inkscape:connector-curvature="0"
       sodipodi:nodetypes="ccc" />
    <rect
       style="opacity:0.89959998;fill:none;fill-opacity:1;stroke:none;stroke-width:3.92000008;stroke-linecap:butt;stroke-linejoin:miter;stroke-miterlimit:4;stroke-dasharray:none;stroke-opacity:0.90196078"
       id="rect967"
       width="507.89984"
       height="287.67764"
       x="0"
       y="10.644994" />
    <path
       d="m 77.516488,260.36614 a 3.5001018,3.5001018 0 0 1 1.401246,-4.73611 3.5001018,3.5001018 0 0 1 4.742194,1.38051 3.5001018,3.5001018 0 0 1 -1.359739,4.74819 3.5001018,3.5001018 0 0 1 -4.754095,-1.33895"
       sodipodi:open="true"
       sodipodi:end="2.6285357"
       sodipodi:start="2.6460413"
       sodipodi:ry="3.5001018"
       sodipodi:rx="3.5001018"
       sodipodi:cy="258.70178"
       sodipodi:cx="80.595551"
       sodipodi:type="arc"
       id="path979"
       style="opacity:0.89959998;fill:#008000;fill-opacity:1;stroke:#ffffff;stroke-width:1.365;stroke-linecap:butt;stroke-linejoin:miter;stroke-miterlimit:4;stroke-dasharray:none;stroke-opacity:1" />
    <path
       style="opacity:0.89959998;fill:#008000;fill-opacity:1;stroke:#ffffff;stroke-width:1.365;stroke-linecap:butt;stroke-linejoin:miter;stroke-miterlimit:4;stroke-dasharray:none;stroke-opacity:1"
       id="path981"
       sodipodi:type="arc"
       sodipodi:cx="170.81996"
       sodipodi:cy="269.69504"
       sodipodi:rx="3.5001018"
       sodipodi:ry="3.5001018"
       sodipodi:start="2.6460413"
       sodipodi:end="2.6285357"
       sodipodi:open="true"
       d="m 167.7409,271.35939 a 3.5001018,3.5001018 0 0 1 1.40125,-4.7361 3.5001018,3.5001018 0 0 1 4.74219,1.3805 3.5001018,3.5001018 0 0 1 -1.35974,4.74819 3.5001018,3.5001018 0 0 1 -4.7541,-1.33894" />
    <path
       d="m 168.66784,238.97333 a 3.5001018,3.5001018 0 0 1 1.40125,-4.7361 3.5001018,3.5001018 0 0 1 4.74219,1.3805 3.5001018,3.5001018 0 0 1 -1.35974,4.74819 3.5001018,3.5001018 0 0 1 -4.75409,-1.33894"
       sodipodi:open="true"
       sodipodi:end="2.6285357"
       sodipodi:start="2.6460413"
       sodipodi:ry="3.5001018"
       sodipodi:rx="3.5001018"
       sodipodi:cy="237.30898"
       sodipodi:cx="171.7469"
       sodipodi:type="arc"
       id="path983"
       style="opacity:0.89959998;fill:#008000;fill-opacity:1;stroke:#ffffff;stroke-width:1.36500001;stroke-linecap:butt;stroke-linejoin:miter;stroke-miterlimit:4;stroke-dasharray:none;stroke-opacity:1" />
    <path
       style="opacity:0.89959998;fill:#008000;fill-opacity:1;stroke:#ffffff;stroke-width:1.365;stroke-linecap:butt;stroke-linejoin:miter;stroke-miterlimit:4;stroke-dasharray:none;stroke-opacity:1"
       id="path985"
       sodipodi:type="arc"
       sodipodi:cx="278.69611"
       sodipodi:cy="239.3942"
       sodipodi:rx="3.5001018"
       sodipodi:ry="3.5001018"
       sodipodi:start="2.6460413"
       sodipodi:end="2.6285357"
       sodipodi:open="true"
       d="m 275.61704,241.05855 a 3.5001018,3.5001018 0 0 1 1.40125,-4.7361 3.5001018,3.5001018 0 0 1 4.74219,1.3805 3.5001018,3.5001018 0 0 1 -1.35974,4.74819 3.5001018,3.5001018 0 0 1 -4.75409,-1.33894" />
    <path
       d="m 428.25794,85.065732 a 3.5001018,3.5001018 0 0 1 1.40125,-4.736107 3.5001018,3.5001018 0 0 1 4.74219,1.380506 3.5001018,3.5001018 0 0 1 -1.35974,4.74819 3.5001018,3.5001018 0 0 1 -4.75409,-1.338946"
       sodipodi:open="true"
       sodipodi:end="2.6285357"
       sodipodi:start="2.6460413"
       sodipodi:ry="3.5001018"
       sodipodi:rx="3.5001018"
       sodipodi:cy="83.401375"
       sodipodi:cx="431.33701"
       sodipodi:type="arc"
       id="path987"
       style="opacity:0.89959998;fill:#008000;fill-opacity:1;stroke:#ffffff;stroke-width:1.359;stroke-linecap:butt;stroke-linejoin:miter;stroke-miterlimit:4;stroke-dasharray:none;stroke-opacity:1" />
    <path
       style="opacity:0.89959998;fill:#008000;fill-opacity:1;stroke:#ffffff;stroke-width:1.365;stroke-linecap:butt;stroke-linejoin:miter;stroke-miterlimit:4;stroke-dasharray:none;stroke-opacity:1"
       id="path905"
       sodipodi:type="arc"
       sodipodi:cx="30.49423"
       sodipodi:cy="121.75336"
       sodipodi:rx="3.5001018"
       sodipodi:ry="3.5001018"
       sodipodi:start="2.6460413"
       sodipodi:end="2.6285357"
       sodipodi:open="true"
       d="m 27.415167,123.41771 a 3.5001018,3.5001018 0 0 1 1.401247,-4.7361 3.5001018,3.5001018 0 0 1 4.742194,1.3805 3.5001018,3.5001018 0 0 1 -1.35974,4.74819 3.5001018,3.5001018 0 0 1 -4.754095,-1.33894" />
    <path
       style="fill:none;stroke:#ffffff;stroke-width:1.46500003;stroke-linecap:butt;stroke-linejoin:miter;stroke-miterlimit:4;stroke-dasharray:none;stroke-opacity:1"
       d="m 108.99486,108.15137 -70.144469,38.34562 v 50.03635 L 109.5743,155.7009 Z"
       id="path997"
       inkscape:connector-curvature="0" />
    <path
       d="m 47.090218,177.11014 a 3.5001018,3.5001018 0 0 1 1.401247,-4.7361 3.5001018,3.5001018 0 0 1 4.742193,1.3805 3.5001018,3.5001018 0 0 1 -1.359739,4.74819 3.5001018,3.5001018 0 0 1 -4.754095,-1.33894"
       sodipodi:open="true"
       sodipodi:end="2.6285357"
       sodipodi:start="2.6460413"
       sodipodi:ry="3.5001018"
       sodipodi:rx="3.5001018"
       sodipodi:cy="175.44579"
       sodipodi:cx="50.169281"
       sodipodi:type="arc"
       id="path999"
       style="opacity:0.89959998;fill:#ffffff;fill-opacity:1;stroke:#ffffff;stroke-width:1.36500001;stroke-linecap:butt;stroke-linejoin:miter;stroke-miterlimit:4;stroke-dasharray:none;stroke-opacity:1" />
    <path
       style="opacity:0.89959998;fill:#ffffff;fill-opacity:1;stroke:#ffffff;stroke-width:1.36500001;stroke-linecap:butt;stroke-linejoin:miter;stroke-miterlimit:4;stroke-dasharray:none;stroke-opacity:1"
       id="path1001"
       sodipodi:type="arc"
       sodipodi:cx="67.033142"
       sodipodi:cy="162.88055"
       sodipodi:rx="3.5001018"
       sodipodi:ry="3.5001018"
       sodipodi:start="2.6460413"
       sodipodi:end="2.6285357"
       sodipodi:open="true"
       d="m 63.954079,164.54491 a 3.5001018,3.5001018 0 0 1 1.401247,-4.73611 3.5001018,3.5001018 0 0 1 4.742193,1.38051 3.5001018,3.5001018 0 0 1 -1.359739,4.74819 3.5001018,3.5001018 0 0 1 -4.754095,-1.33895"
       inkscape:transform-center-x="19.178463"
       inkscape:transform-center-y="10.25063" />
    <path
       inkscape:transform-center-y="10.25063"
       inkscape:transform-center-x="19.178463"
       d="m 76.849976,165.20624 a 3.5001018,3.5001018 0 0 1 1.401247,-4.7361 3.5001018,3.5001018 0 0 1 4.742193,1.3805 3.5001018,3.5001018 0 0 1 -1.359739,4.74819 3.5001018,3.5001018 0 0 1 -4.754095,-1.33894"
       sodipodi:open="true"
       sodipodi:end="2.6285357"
       sodipodi:start="2.6460413"
       sodipodi:ry="3.5001018"
       sodipodi:rx="3.5001018"
       sodipodi:cy="163.54189"
       sodipodi:cx="79.929039"
       sodipodi:type="arc"
       id="path1003"
       style="opacity:0.89959998;fill:#ffffff;fill-opacity:1;stroke:#ffffff;stroke-width:1.36500001;stroke-linecap:butt;stroke-linejoin:miter;stroke-miterlimit:4;stroke-dasharray:none;stroke-opacity:1" />
    <path
       style="opacity:0.89959998;fill:#ffffff;fill-opacity:1;stroke:#ffffff;stroke-width:1.36500001;stroke-linecap:butt;stroke-linejoin:miter;stroke-miterlimit:4;stroke-dasharray:none;stroke-opacity:1"
       id="path1005"
       sodipodi:type="arc"
       sodipodi:cx="90.84095"
       sodipodi:cy="151.30731"
       sodipodi:rx="3.5001018"
       sodipodi:ry="3.5001018"
       sodipodi:start="2.6460413"
       sodipodi:end="2.6285357"
       sodipodi:open="true"
       d="m 87.761887,152.97167 a 3.5001018,3.5001018 0 0 1 1.401247,-4.73611 3.5001018,3.5001018 0 0 1 4.742193,1.38051 3.5001018,3.5001018 0 0 1 -1.359739,4.74819 3.5001018,3.5001018 0 0 1 -4.754095,-1.33895"
       inkscape:transform-center-x="19.178463"
       inkscape:transform-center-y="10.25063" />
    <path
       inkscape:connector-curvature="0"
       id="path1011"
       d="m 335.91207,68.870496 70.14447,38.345624 v 50.03634 l -70.72391,-40.83243 z"
       style="fill:none;stroke:#ffffff;stroke-width:1.46500003;stroke-linecap:butt;stroke-linejoin:miter;stroke-miterlimit:4;stroke-dasharray:none;stroke-opacity:1" />
    <path
       inkscape:transform-center-y="10.25063"
       inkscape:transform-center-x="19.178463"
       d="m 356.64881,117.43183 a 3.5001018,3.5001018 0 0 1 1.40125,-4.73611 3.5001018,3.5001018 0 0 1 4.74219,1.38051 3.5001018,3.5001018 0 0 1 -1.35974,4.74819 3.5001018,3.5001018 0 0 1 -4.75409,-1.33895"
       sodipodi:open="true"
       sodipodi:end="2.6285357"
       sodipodi:start="2.6460413"
       sodipodi:ry="3.5001018"
       sodipodi:rx="3.5001018"
       sodipodi:cy="115.76747"
       sodipodi:cx="359.72787"
       sodipodi:type="arc"
       id="path1013"
       style="opacity:0.89959998;fill:#ffffff;fill-opacity:1;stroke:#ffffff;stroke-width:1.36500001;stroke-linecap:butt;stroke-linejoin:miter;stroke-miterlimit:4;stroke-dasharray:none;stroke-opacity:1" />
    <path
       style="opacity:0.89959998;fill:#ffffff;fill-opacity:1;stroke:#ffffff;stroke-width:1.36500001;stroke-linecap:butt;stroke-linejoin:miter;stroke-miterlimit:4;stroke-dasharray:none;stroke-opacity:1"
       id="path1015"
       sodipodi:type="arc"
       sodipodi:cx="359.72787"
       sodipodi:cy="115.76747"
       sodipodi:rx="3.5001018"
       sodipodi:ry="3.5001018"
       sodipodi:start="2.6460413"
       sodipodi:end="2.6285357"
       sodipodi:open="true"
       d="m 356.64881,117.43183 a 3.5001018,3.5001018 0 0 1 1.40125,-4.73611 3.5001018,3.5001018 0 0 1 4.74219,1.38051 3.5001018,3.5001018 0 0 1 -1.35974,4.74819 3.5001018,3.5001018 0 0 1 -4.75409,-1.33895"
       inkscape:transform-center-x="19.178463"
       inkscape:transform-center-y="10.25063" />
    <path
       inkscape:transform-center-y="10.25063"
       inkscape:transform-center-x="19.178463"
       d="m 381.9008,133.33123 a 3.5001018,3.5001018 0 0 1 1.40124,-4.73611 3.5001018,3.5001018 0 0 1 4.7422,1.38051 3.5001018,3.5001018 0 0 1 -1.35974,4.74819 3.5001018,3.5001018 0 0 1 -4.7541,-1.33895"
       sodipodi:open="true"
       sodipodi:end="2.6285357"
       sodipodi:start="2.6460413"
       sodipodi:ry="3.5001018"
       sodipodi:rx="3.5001018"
       sodipodi:cy="131.66687"
       sodipodi:cx="384.97986"
       sodipodi:type="arc"
       id="path1017"
       style="opacity:0.89959998;fill:#ffffff;fill-opacity:1;stroke:#ffffff;stroke-width:1.36500001;stroke-linecap:butt;stroke-linejoin:miter;stroke-miterlimit:4;stroke-dasharray:none;stroke-opacity:1" />
    <path
       style="opacity:0.89959998;fill:#ffffff;fill-opacity:1;stroke:#ffffff;stroke-width:1.36500001;stroke-linecap:butt;stroke-linejoin:miter;stroke-miterlimit:4;stroke-dasharray:none;stroke-opacity:1"
       id="path1019"
       sodipodi:type="arc"
       sodipodi:cx="374.2244"
       sodipodi:cy="125.12006"
       sodipodi:rx="3.5001018"
       sodipodi:ry="3.5001018"
       sodipodi:start="2.6460413"
       sodipodi:end="2.6285357"
       sodipodi:open="true"
       d="m 371.14533,126.78442 a 3.5001018,3.5001018 0 0 1 1.40125,-4.73611 3.5001018,3.5001018 0 0 1 4.74219,1.38051 3.5001018,3.5001018 0 0 1 -1.35974,4.74819 3.5001018,3.5001018 0 0 1 -4.75409,-1.33895"
       inkscape:transform-center-x="19.178463"
       inkscape:transform-center-y="10.25063" />
    <path
       inkscape:transform-center-y="10.25063"
       inkscape:transform-center-x="19.178463"
       d="m 359.71699,125.7208 a 3.5001018,3.5001018 0 0 1 1.40124,-4.73611 3.5001018,3.5001018 0 0 1 4.7422,1.38051 3.5001018,3.5001018 0 0 1 -1.35974,4.74819 3.5001018,3.5001018 0 0 1 -4.7541,-1.33895"
       sodipodi:open="true"
       sodipodi:end="2.6285357"
       sodipodi:start="2.6460413"
       sodipodi:ry="3.5001018"
       sodipodi:rx="3.5001018"
       sodipodi:cy="124.05644"
       sodipodi:cx="362.79605"
       sodipodi:type="arc"
       id="path1021"
       style="opacity:0.89959998;fill:#ffffff;fill-opacity:1;stroke:#ffffff;stroke-width:1.36500001;stroke-linecap:butt;stroke-linejoin:miter;stroke-miterlimit:4;stroke-dasharray:none;stroke-opacity:1" />
  </g>
</svg>
