<?xml version="1.0" encoding="UTF-8" standalone="no"?>
<svg
   xmlns:dc="http://purl.org/dc/elements/1.1/"
   xmlns:cc="http://creativecommons.org/ns#"
   xmlns:rdf="http://www.w3.org/1999/02/22-rdf-syntax-ns#"
   xmlns:svg="http://www.w3.org/2000/svg"
   xmlns="http://www.w3.org/2000/svg"
   id="svg8"
   version="1.1"
   viewBox="0 0 507.99999 285.75001"
   height="1080"
   width="1920">
  <defs
     id="defs2" />
  <metadata
     id="metadata5">
    <rdf:RDF>
      <cc:Work
         rdf:about="">
        <dc:format>image/svg+xml</dc:format>
        <dc:type
           rdf:resource="http://purl.org/dc/dcmitype/StillImage" />
        <dc:title></dc:title>
      </cc:Work>
    </rdf:RDF>
  </metadata>
  <g
     id="layer1"
     transform="translate(0,-11.249983)">
    <path
       id="path903"
       d="m 68.035713,206.2857 -57.45238,77.8631 H 489.85714 L 431.63451,206.44223 68.035713,206.2857"
       style="fill:none;stroke:#000000;stroke-width:0.26458332px;stroke-linecap:butt;stroke-linejoin:miter;stroke-opacity:1" />
    <path
       d="m 30.257046,121.78939 a 2.9007735,2.9007735 0 0 1 1.161309,-3.92513 2.9007735,2.9007735 0 0 1 3.93018,1.14412 2.9007735,2.9007735 0 0 1 -1.126909,3.93515 2.9007735,2.9007735 0 0 1 -3.940043,-1.10968"
       id="path905"
       style="opacity:0.89959998;fill:#000000;fill-opacity:1;stroke:#000000;stroke-width:3.92038417;stroke-linecap:butt;stroke-linejoin:miter;stroke-miterlimit:4;stroke-dasharray:none;stroke-opacity:1" />
    <path
       style="opacity:0.89959998;fill:#000000;fill-opacity:1;stroke:#000000;stroke-width:3.92038417;stroke-linecap:butt;stroke-linejoin:miter;stroke-miterlimit:4;stroke-dasharray:none;stroke-opacity:1"
       id="path916"
       d="m 80.234959,259.01688 a 2.9007735,2.9007735 0 0 1 1.161309,-3.92514 2.9007735,2.9007735 0 0 1 3.93018,1.14412 2.9007735,2.9007735 0 0 1 -1.126909,3.93515 2.9007735,2.9007735 0 0 1 -3.940043,-1.10967" />
    <path
       d="m 170.87287,270.02896 a 2.9007735,2.9007735 0 0 1 1.16131,-3.92513 2.9007735,2.9007735 0 0 1 3.93018,1.14412 2.9007735,2.9007735 0 0 1 -1.12691,3.93515 2.9007735,2.9007735 0 0 1 -3.94005,-1.10968"
       id="path918"
       style="opacity:0.89959998;fill:#000000;fill-opacity:1;stroke:#000000;stroke-width:3.92038417;stroke-linecap:butt;stroke-linejoin:miter;stroke-miterlimit:4;stroke-dasharray:none;stroke-opacity:1" />
    <path
       style="opacity:0.89959998;fill:#000000;fill-opacity:1;stroke:#000000;stroke-width:3.92038417;stroke-linecap:butt;stroke-linejoin:miter;stroke-miterlimit:4;stroke-dasharray:none;stroke-opacity:1"
       id="path920"
       d="m 156.29059,227.44431 a 2.9007735,2.9007735 0 0 1 1.16131,-3.92514 2.9007735,2.9007735 0 0 1 3.93018,1.14412 2.9007735,2.9007735 0 0 1 -1.12691,3.93515 2.9007735,2.9007735 0 0 1 -3.94004,-1.10967" />
    <path
       d="m 278.45244,239.53395 a 2.9007735,2.9007735 0 0 1 1.16131,-3.92513 2.9007735,2.9007735 0 0 1 3.93018,1.14412 2.9007735,2.9007735 0 0 1 -1.12691,3.93515 2.9007735,2.9007735 0 0 1 -3.94004,-1.10968"
       id="path922"
       style="opacity:0.89959998;fill:#000000;fill-opacity:1;stroke:#000000;stroke-width:3.92038417;stroke-linecap:butt;stroke-linejoin:miter;stroke-miterlimit:4;stroke-dasharray:none;stroke-opacity:1" />
    <path
       id="path924"
       d="M 80.234958,259.01688 30.257046,121.78939 c 38.536945,40.28862 90.207634,68.20056 126.033544,105.65492"
       style="fill:none;stroke:#000000;stroke-width:0.26458332px;stroke-linecap:butt;stroke-linejoin:miter;stroke-opacity:1" />
    <path
       id="path928"
       d="M 170.87286,270.02896 30.281583,121.83385 278.45244,239.53395"
       style="fill:none;stroke:#000000;stroke-width:0.26458332px;stroke-linecap:butt;stroke-linejoin:miter;stroke-opacity:1" />
    <path
       style="opacity:0.89959998;fill:#000000;fill-opacity:1;stroke:#000000;stroke-width:3.92038417;stroke-linecap:butt;stroke-linejoin:miter;stroke-miterlimit:4;stroke-dasharray:none;stroke-opacity:1"
       id="path930"
       d="m 431.68309,82.771044 a 2.9007735,2.9007735 0 0 1 1.16131,-3.925135 2.9007735,2.9007735 0 0 1 3.93018,1.14412 2.9007735,2.9007735 0 0 1 -1.12691,3.935149 2.9007735,2.9007735 0 0 1 -3.94004,-1.109676" />
    <path
       id="path932"
       d="M 80.259496,259.06133 431.6831,82.771043"
       style="fill:none;stroke:#000000;stroke-width:0.26458332px;stroke-linecap:butt;stroke-linejoin:miter;stroke-opacity:1" />
    <path
       id="path934"
       d="M 170.8974,270.07342 431.6831,82.771043"
       style="fill:none;stroke:#000000;stroke-width:0.26458332px;stroke-linecap:butt;stroke-linejoin:miter;stroke-opacity:1" />
    <path
       id="path936"
       d="M 278.45244,239.53395 431.6831,82.771043 156.31513,227.48876"
       style="fill:none;stroke:#000000;stroke-width:0.26458332px;stroke-linecap:butt;stroke-linejoin:miter;stroke-opacity:1" />
  </g>
</svg>
